<?xml version="1.0" encoding="utf-8"?>
<!-- Generator: Adobe Illustrator 22.0.0, SVG Export Plug-In . SVG Version: 6.00 Build 0)  -->
<svg version="1.2" baseProfile="tiny" id="Layer_1" xmlns="http://www.w3.org/2000/svg" xmlns:xlink="http://www.w3.org/1999/xlink"
	 x="0px" y="0px" viewBox="0 0 1209 1926" xml:space="preserve">
<rect fill="#4D455D" width="1209" height="1926"/>
<path fill="none" stroke="#FFFFFF" stroke-width="11" stroke-linejoin="round" d="M507.8,263.1h190.9c14.4,0,26,11.7,26,26v173.6
	c0,14.4-11.7,26-26,26H507.8c-14.4,0-26-11.7-26-26V289.2C481.7,274.8,493.4,263.1,507.8,263.1z"/>
<polyline fill="none" stroke="#FFFFFF" stroke-width="11" stroke-linecap="round" stroke-linejoin="round" points="516.4,297.9 
	559.8,332.6 516.4,367.3 "/>
<line fill="none" stroke="#FFFFFF" stroke-width="11" stroke-linecap="round" stroke-linejoin="round" x1="568.5" y1="367.3" x2="603.2" y2="367.3"/>
<g id="adaptive_responsive_design_1_">
	<g>
		<g>
			<path fill="#FFFFFF" d="M489.6,793.5c-2.1,0-3.9-1.7-3.9-3.9V665.4c0-6.4,5.2-11.7,11.7-11.7h209.8c6.4,0,11.7,5.2,11.7,11.7V677
				c0,2.1-1.7,3.9-3.9,3.9c-2.1,0-3.9-1.7-3.9-3.9v-11.7c0-2.1-1.7-3.9-3.9-3.9H497.3c-2.1,0-3.9,1.7-3.9,3.9v124.3
				C493.5,791.8,491.7,793.5,489.6,793.5z"/>
		</g>
		<path fill="#FFFFFF" d="M602.2,879h-42.7c-2.1,0-3.9-1.7-3.9-3.9c0-2.1,1.7-3.9,3.9-3.9h7.8c6.4,0,11.7-5.2,11.7-11.7v-19.4
			c0-2.1,1.7-3.9,3.9-3.9s3.9,1.7,3.9,3.9v19.4c0,4.4-1.5,8.4-3.9,11.7h19.4c2.1,0,3.9,1.7,3.9,3.9C606.1,877.3,604.4,879,602.2,879
			z"/>
		<path fill="#FFFFFF" d="M598.3,840.2h-101c-6.4,0-11.7-5.2-11.7-11.7v-23.3c0-2.1,1.7-3.9,3.9-3.9h108.8c2.1,0,3.9,1.7,3.9,3.9
			s-1.7,3.9-3.9,3.9H493.5v19.4c0,2.1,1.7,3.9,3.9,3.9h101c2.1,0,3.9,1.7,3.9,3.9C602.2,838.4,600.5,840.2,598.3,840.2z"/>
	</g>
	<g>
		<g>
			<g>
				<path fill="#FFFFFF" d="M645,708.1h38.8c2.1,0,3.9-1.7,3.9-3.9s-1.7-3.9-3.9-3.9H645c-2.1,0-3.9,1.7-3.9,3.9
					S642.8,708.1,645,708.1z"/>
			</g>
		</g>
		<g>
			<g>
				<path fill="#FFFFFF" d="M660.5,863.5h7.8c2.1,0,3.9-1.7,3.9-3.9c0-2.1-1.7-3.9-3.9-3.9h-7.8c-2.1,0-3.9,1.7-3.9,3.9
					C656.6,861.7,658.3,863.5,660.5,863.5z"/>
			</g>
		</g>
		<path fill="#FFFFFF" d="M699.3,879h-69.9c-10.7,0-19.4-8.7-19.4-19.4V704.2c0-10.7,8.7-19.4,19.4-19.4h69.9
			c10.7,0,19.4,8.7,19.4,19.4v155.4C718.8,870.3,710,879,699.3,879z M629.4,692.5c-6.4,0-11.7,5.2-11.7,11.7v155.4
			c0,6.4,5.2,11.7,11.7,11.7h69.9c6.4,0,11.7-5.2,11.7-11.7V704.2c0-6.4-5.2-11.7-11.7-11.7H629.4z"/>
	</g>
</g>
<g id="Expanded">
	<g>
		<g>
			<path fill="none" stroke="#FFFFFF" stroke-width="8" stroke-miterlimit="10" d="M604.9,1126.7c-72.3,0-129-25.5-129-58
				s56.7-58,129-58s129,25.5,129,58S677.2,1126.7,604.9,1126.7z M604.9,1023.5c-54.9,0-116.1,18.5-116.1,45.1
				c0,26.6,61.2,45.1,116.1,45.1s116.1-18.5,116.1-45.1C721,1042.1,659.8,1023.5,604.9,1023.5z"/>
		</g>
		<g>
			<path fill="none" stroke="#FFFFFF" stroke-width="8" stroke-miterlimit="10" d="M604.9,1178.3c-72.3,0-129-25.5-129-58v-51.6
				c0-3.6,2.9-6.4,6.4-6.4s6.4,2.9,6.4,6.4v51.6c0,26.6,61.2,45.1,116.1,45.1s116.1-18.5,116.1-45.1v-51.6c0-3.6,2.9-6.4,6.4-6.4
				s6.4,2.9,6.4,6.4v51.6C733.9,1152.8,677.2,1178.3,604.9,1178.3z"/>
		</g>
		<g>
			<path fill="none" stroke="#FFFFFF" stroke-width="8" stroke-miterlimit="10" d="M604.9,1236.4c-72.3,0-129-25.5-129-58v-58
				c0-3.6,2.9-6.4,6.4-6.4s6.4,2.9,6.4,6.4v58c0,26.6,61.2,45.1,116.1,45.1s116.1-18.5,116.1-45.1v-58c0-3.6,2.9-6.4,6.4-6.4
				s6.4,2.9,6.4,6.4v58C733.9,1210.9,677.2,1236.4,604.9,1236.4z"/>
		</g>
		<g>
			<path fill="none" stroke="#FFFFFF" stroke-width="8" stroke-miterlimit="10" d="M604.9,1294.4c-72.3,0-129-25.5-129-58v-58
				c0-3.6,2.9-6.4,6.4-6.4s6.4,2.9,6.4,6.4v58c0,26.6,61.2,45.1,116.1,45.1S721,1263,721,1236.4v-58c0-3.6,2.9-6.4,6.4-6.4
				s6.4,2.9,6.4,6.4v58C733.9,1268.9,677.2,1294.4,604.9,1294.4z"/>
		</g>
	</g>
</g>
<g id="hardware_x2C__processor_x2C__microprocessor">
	<g>
		<g>
			<g>
				<path fill="#FFFFFF" d="M662.7,1629.3H541.8c-0.9,0-1.8-0.4-2.5-1l-10.7-10.7c-0.7-0.7-1-1.6-1-2.5v-110.2c0-2,1.6-3.6,3.6-3.6
					c2,0,3.6,1.6,3.6,3.6v108.7l8.6,8.6h117.9l8.6-8.6v-117.9l-8.6-8.6H543.3l-6.5,6.5c-1.4,1.4-3.6,1.4-5,0c-1.4-1.4-1.4-3.6,0-5
					l7.6-7.6c0.7-0.7,1.6-1,2.5-1h120.9c0.9,0,1.8,0.4,2.5,1l10.7,10.7c0.7,0.7,1,1.6,1,2.5v120.9c0,0.9-0.4,1.8-1,2.5l-10.7,10.7
					C664.5,1628.9,663.6,1629.3,662.7,1629.3z"/>
			</g>
		</g>
		<g>
			<g>
				<path fill="#FFFFFF" d="M516.9,1607.9h-14.2c-2,0-3.6,1.6-3.6,3.6s1.6,3.6,3.6,3.6h14.2c2,0,3.6-1.6,3.6-3.6
					S518.9,1607.9,516.9,1607.9z"/>
			</g>
			<g>
				<path fill="#FFFFFF" d="M516.9,1593.7h-14.2c-2,0-3.6,1.6-3.6,3.6s1.6,3.6,3.6,3.6h14.2c2,0,3.6-1.6,3.6-3.6
					S518.9,1593.7,516.9,1593.7z"/>
			</g>
			<g>
				<path fill="#FFFFFF" d="M516.9,1579.5h-14.2c-2,0-3.6,1.6-3.6,3.6s1.6,3.6,3.6,3.6h14.2c2,0,3.6-1.6,3.6-3.6
					S518.9,1579.5,516.9,1579.5z"/>
			</g>
			<g>
				<path fill="#FFFFFF" d="M516.9,1565.3h-14.2c-2,0-3.6,1.6-3.6,3.6s1.6,3.6,3.6,3.6h14.2c2,0,3.6-1.6,3.6-3.6
					S518.9,1565.3,516.9,1565.3z"/>
			</g>
			<g>
				<path fill="#FFFFFF" d="M516.9,1551.1h-14.2c-2,0-3.6,1.6-3.6,3.6s1.6,3.6,3.6,3.6h14.2c2,0,3.6-1.6,3.6-3.6
					S518.9,1551.1,516.9,1551.1z"/>
			</g>
			<g>
				<path fill="#FFFFFF" d="M516.9,1536.9h-14.2c-2,0-3.6,1.6-3.6,3.6s1.6,3.6,3.6,3.6h14.2c2,0,3.6-1.6,3.6-3.6
					S518.9,1536.9,516.9,1536.9z"/>
			</g>
			<g>
				<path fill="#FFFFFF" d="M516.9,1522.6h-14.2c-2,0-3.6,1.6-3.6,3.6s1.6,3.6,3.6,3.6h14.2c2,0,3.6-1.6,3.6-3.6
					S518.9,1522.6,516.9,1522.6z"/>
			</g>
			<g>
				<path fill="#FFFFFF" d="M516.9,1508.4h-14.2c-2,0-3.6,1.6-3.6,3.6s1.6,3.6,3.6,3.6h14.2c2,0,3.6-1.6,3.6-3.6
					S518.9,1508.4,516.9,1508.4z"/>
			</g>
			<g>
				<path fill="#FFFFFF" d="M516.9,1494.2h-14.2c-2,0-3.6,1.6-3.6,3.6s1.6,3.6,3.6,3.6h14.2c2,0,3.6-1.6,3.6-3.6
					S518.9,1494.2,516.9,1494.2z"/>
			</g>
			<g>
				<path fill="#FFFFFF" d="M701.8,1607.9h-14.2c-2,0-3.6,1.6-3.6,3.6s1.6,3.6,3.6,3.6h14.2c2,0,3.6-1.6,3.6-3.6
					S703.7,1607.9,701.8,1607.9z"/>
			</g>
			<g>
				<path fill="#FFFFFF" d="M701.8,1593.7h-14.2c-2,0-3.6,1.6-3.6,3.6s1.6,3.6,3.6,3.6h14.2c2,0,3.6-1.6,3.6-3.6
					S703.7,1593.7,701.8,1593.7z"/>
			</g>
			<g>
				<path fill="#FFFFFF" d="M701.8,1579.5h-14.2c-2,0-3.6,1.6-3.6,3.6s1.6,3.6,3.6,3.6h14.2c2,0,3.6-1.6,3.6-3.6
					S703.7,1579.5,701.8,1579.5z"/>
			</g>
			<g>
				<path fill="#FFFFFF" d="M701.8,1565.3h-14.2c-2,0-3.6,1.6-3.6,3.6s1.6,3.6,3.6,3.6h14.2c2,0,3.6-1.6,3.6-3.6
					S703.7,1565.3,701.8,1565.3z"/>
			</g>
			<g>
				<path fill="#FFFFFF" d="M701.8,1551.1h-14.2c-2,0-3.6,1.6-3.6,3.6s1.6,3.6,3.6,3.6h14.2c2,0,3.6-1.6,3.6-3.6
					S703.7,1551.1,701.8,1551.1z"/>
			</g>
			<g>
				<path fill="#FFFFFF" d="M701.8,1536.9h-14.2c-2,0-3.6,1.6-3.6,3.6s1.6,3.6,3.6,3.6h14.2c2,0,3.6-1.6,3.6-3.6
					S703.7,1536.9,701.8,1536.9z"/>
			</g>
			<g>
				<path fill="#FFFFFF" d="M701.8,1522.6h-14.2c-2,0-3.6,1.6-3.6,3.6s1.6,3.6,3.6,3.6h14.2c2,0,3.6-1.6,3.6-3.6
					S703.7,1522.6,701.8,1522.6z"/>
			</g>
			<g>
				<path fill="#FFFFFF" d="M701.8,1508.4h-14.2c-2,0-3.6,1.6-3.6,3.6s1.6,3.6,3.6,3.6h14.2c2,0,3.6-1.6,3.6-3.6
					S703.7,1508.4,701.8,1508.4z"/>
			</g>
			<g>
				<path fill="#FFFFFF" d="M687.5,1501.3h14.2c2,0,3.6-1.6,3.6-3.6s-1.6-3.6-3.6-3.6h-14.2c-2,0-3.6,1.6-3.6,3.6
					S685.6,1501.3,687.5,1501.3z"/>
			</g>
			<g>
				<path fill="#FFFFFF" d="M659.1,1636.4c-2,0-3.6,1.6-3.6,3.6v14.2c0,2,1.6,3.6,3.6,3.6c2,0,3.6-1.6,3.6-3.6v-14.2
					C662.7,1638,661.1,1636.4,659.1,1636.4z"/>
			</g>
			<g>
				<path fill="#FFFFFF" d="M644.9,1636.4c-2,0-3.6,1.6-3.6,3.6v14.2c0,2,1.6,3.6,3.6,3.6c2,0,3.6-1.6,3.6-3.6v-14.2
					C648.4,1638,646.8,1636.4,644.9,1636.4z"/>
			</g>
			<g>
				<path fill="#FFFFFF" d="M630.7,1636.4c-2,0-3.6,1.6-3.6,3.6v14.2c0,2,1.6,3.6,3.6,3.6c2,0,3.6-1.6,3.6-3.6v-14.2
					C634.2,1638,632.6,1636.4,630.7,1636.4z"/>
			</g>
			<g>
				<path fill="#FFFFFF" d="M616.4,1636.4c-2,0-3.6,1.6-3.6,3.6v14.2c0,2,1.6,3.6,3.6,3.6c2,0,3.6-1.6,3.6-3.6v-14.2
					C620,1638,618.4,1636.4,616.4,1636.4z"/>
			</g>
			<g>
				<path fill="#FFFFFF" d="M602.2,1636.4c-2,0-3.6,1.6-3.6,3.6v14.2c0,2,1.6,3.6,3.6,3.6c2,0,3.6-1.6,3.6-3.6v-14.2
					C605.8,1638,604.2,1636.4,602.2,1636.4z"/>
			</g>
			<g>
				<path fill="#FFFFFF" d="M588,1636.4c-2,0-3.6,1.6-3.6,3.6v14.2c0,2,1.6,3.6,3.6,3.6c2,0,3.6-1.6,3.6-3.6v-14.2
					C591.6,1638,590,1636.4,588,1636.4z"/>
			</g>
			<g>
				<path fill="#FFFFFF" d="M573.8,1636.4c-2,0-3.6,1.6-3.6,3.6v14.2c0,2,1.6,3.6,3.6,3.6c2,0,3.6-1.6,3.6-3.6v-14.2
					C577.3,1638,575.7,1636.4,573.8,1636.4z"/>
			</g>
			<g>
				<path fill="#FFFFFF" d="M559.6,1636.4c-2,0-3.6,1.6-3.6,3.6v14.2c0,2,1.6,3.6,3.6,3.6c2,0,3.6-1.6,3.6-3.6v-14.2
					C563.1,1638,561.5,1636.4,559.6,1636.4z"/>
			</g>
			<g>
				<path fill="#FFFFFF" d="M545.3,1636.4c-2,0-3.6,1.6-3.6,3.6v14.2c0,2,1.6,3.6,3.6,3.6c2,0,3.6-1.6,3.6-3.6v-14.2
					C548.9,1638,547.3,1636.4,545.3,1636.4z"/>
			</g>
			<g>
				<path fill="#FFFFFF" d="M659.1,1451.5c-2,0-3.6,1.6-3.6,3.6v14.2c0,2,1.6,3.6,3.6,3.6c2,0,3.6-1.6,3.6-3.6v-14.2
					C662.7,1453.1,661.1,1451.5,659.1,1451.5z"/>
			</g>
			<g>
				<path fill="#FFFFFF" d="M644.9,1451.5c-2,0-3.6,1.6-3.6,3.6v14.2c0,2,1.6,3.6,3.6,3.6c2,0,3.6-1.6,3.6-3.6v-14.2
					C648.4,1453.1,646.8,1451.5,644.9,1451.5z"/>
			</g>
			<g>
				<path fill="#FFFFFF" d="M630.7,1451.5c-2,0-3.6,1.6-3.6,3.6v14.2c0,2,1.6,3.6,3.6,3.6c2,0,3.6-1.6,3.6-3.6v-14.2
					C634.2,1453.1,632.6,1451.5,630.7,1451.5z"/>
			</g>
			<g>
				<path fill="#FFFFFF" d="M616.4,1451.5c-2,0-3.6,1.6-3.6,3.6v14.2c0,2,1.6,3.6,3.6,3.6c2,0,3.6-1.6,3.6-3.6v-14.2
					C620,1453.1,618.4,1451.5,616.4,1451.5z"/>
			</g>
			<g>
				<path fill="#FFFFFF" d="M602.2,1451.5c-2,0-3.6,1.6-3.6,3.6v14.2c0,2,1.6,3.6,3.6,3.6c2,0,3.6-1.6,3.6-3.6v-14.2
					C605.8,1453.1,604.2,1451.5,602.2,1451.5z"/>
			</g>
			<g>
				<path fill="#FFFFFF" d="M588,1451.5c-2,0-3.6,1.6-3.6,3.6v14.2c0,2,1.6,3.6,3.6,3.6c2,0,3.6-1.6,3.6-3.6v-14.2
					C591.6,1453.1,590,1451.5,588,1451.5z"/>
			</g>
			<g>
				<path fill="#FFFFFF" d="M573.8,1451.5c-2,0-3.6,1.6-3.6,3.6v14.2c0,2,1.6,3.6,3.6,3.6c2,0,3.6-1.6,3.6-3.6v-14.2
					C577.3,1453.1,575.7,1451.5,573.8,1451.5z"/>
			</g>
			<g>
				<path fill="#FFFFFF" d="M559.6,1451.5c-2,0-3.6,1.6-3.6,3.6v14.2c0,2,1.6,3.6,3.6,3.6c2,0,3.6-1.6,3.6-3.6v-14.2
					C563.1,1453.1,561.5,1451.5,559.6,1451.5z"/>
			</g>
			<g>
				<path fill="#FFFFFF" d="M545.3,1451.5c-2,0-3.6,1.6-3.6,3.6v14.2c0,2,1.6,3.6,3.6,3.6c2,0,3.6-1.6,3.6-3.6v-14.2
					C548.9,1453.1,547.3,1451.5,545.3,1451.5z"/>
			</g>
		</g>
	</g>
	<g>
		<g>
			<g>
				<circle fill="#FFFFFF" cx="630.7" cy="1583.1" r="3.6"/>
			</g>
			<g>
				<circle fill="#FFFFFF" cx="616.4" cy="1583.1" r="3.6"/>
			</g>
			<g>
				<circle fill="#FFFFFF" cx="602.2" cy="1583.1" r="3.6"/>
			</g>
			<g>
				<circle fill="#FFFFFF" cx="588" cy="1583.1" r="3.6"/>
			</g>
			<g>
				<circle fill="#FFFFFF" cx="573.8" cy="1583.1" r="3.6"/>
			</g>
		</g>
		<g>
			<g>
				<circle fill="#FFFFFF" cx="630.7" cy="1568.8" r="3.6"/>
			</g>
			<g>
				<circle fill="#FFFFFF" cx="616.4" cy="1568.8" r="3.6"/>
			</g>
			<g>
				<circle fill="#FFFFFF" cx="602.2" cy="1568.8" r="3.6"/>
			</g>
			<g>
				<circle fill="#FFFFFF" cx="588" cy="1568.8" r="3.6"/>
			</g>
			<g>
				<circle fill="#FFFFFF" cx="573.8" cy="1568.8" r="3.6"/>
			</g>
		</g>
		<g>
			<g>
				<circle fill="#FFFFFF" cx="630.7" cy="1554.6" r="3.6"/>
			</g>
			<g>
				<circle fill="#FFFFFF" cx="616.4" cy="1554.6" r="3.6"/>
			</g>
			<g>
				<circle fill="#FFFFFF" cx="602.2" cy="1554.6" r="3.6"/>
			</g>
			<g>
				<circle fill="#FFFFFF" cx="588" cy="1554.6" r="3.6"/>
			</g>
			<g>
				<circle fill="#FFFFFF" cx="573.8" cy="1554.6" r="3.6"/>
			</g>
		</g>
		<g>
			<g>
				<circle fill="#FFFFFF" cx="630.7" cy="1540.4" r="3.6"/>
			</g>
			<g>
				<circle fill="#FFFFFF" cx="616.4" cy="1540.4" r="3.6"/>
			</g>
			<g>
				<circle fill="#FFFFFF" cx="602.2" cy="1540.4" r="3.6"/>
			</g>
			<g>
				<circle fill="#FFFFFF" cx="588" cy="1540.4" r="3.6"/>
			</g>
			<g>
				<circle fill="#FFFFFF" cx="573.8" cy="1540.4" r="3.6"/>
			</g>
		</g>
		<g>
			<g>
				<circle fill="#FFFFFF" cx="630.7" cy="1526.2" r="3.6"/>
			</g>
			<g>
				<circle fill="#FFFFFF" cx="616.4" cy="1526.2" r="3.6"/>
			</g>
			<g>
				<circle fill="#FFFFFF" cx="602.2" cy="1526.2" r="3.6"/>
			</g>
			<g>
				<circle fill="#FFFFFF" cx="588" cy="1526.2" r="3.6"/>
			</g>
			<g>
				<circle fill="#FFFFFF" cx="573.8" cy="1526.2" r="3.6"/>
			</g>
		</g>
	</g>
</g>
</svg>
